<svg clip-rule="evenodd" fill-rule="evenodd" stroke-linejoin="round" stroke-miterlimit="2" viewBox="0 0 24 24" xmlns="http://www.w3.org/2000/svg"><path d="m7.73 16.4c0-.53-.47-1-1-1h-3.73c-.53 0-1 .47-1 1v2.6c0 .53.47 1 1 1h3.73c.53 0 1-.47 1-1zm14.27 0c0-.53-.47-1-1-1h-3.73c-.53 0-1 .47-1 1v2.6c0 .53.47 1 1 1h3.73c.53 0 1-.47 1-1zm-7.135-.084c0-.53-.47-1-1-1h-3.73c-.53 0-1 .47-1 1v2.6c0 .531.47 1 1 1h3.73c.53 0 1-.469 1-1zm7.135-11.316c0-.53-.47-1-1-1h-18c-.53 0-1 .47-1 1v8c0 .53.47 1 1 1h18c.53 0 1-.47 1-1z" fill-rule="nonzero"/></svg>